<?xml version="1.0" encoding="utf-8"?>
<!-- Generator: Adobe Illustrator 26.0.1, SVG Export Plug-In . SVG Version: 6.00 Build 0)  -->
<svg version="1.1" id="Layer_1" xmlns="http://www.w3.org/2000/svg" xmlns:xlink="http://www.w3.org/1999/xlink" x="0px" y="0px"
	 viewBox="0 0 1100 764" style="enable-background:new 0 0 1100 764;" xml:space="preserve">
<style type="text/css">
	.st0{fill:#6D28D9;}
</style>
<g>
	<path class="st0" d="M571.4,376.7c0,7.8-3.1,12.8-9.3,15.1l12.3,17.4h-13.4l-10.8-15.5h-7.5v15.5h-10.9v-48.7h18.4
		c7.6,0,13,1.3,16.2,3.8C569.8,366.9,571.4,371.1,571.4,376.7z M558.3,382.5c1.3-1.2,2-3.1,2-5.7c0-2.6-0.7-4.4-2.1-5.4
		c-1.4-1-3.8-1.5-7.3-1.5h-8.1v14.4h7.9C554.5,384.3,557,383.7,558.3,382.5z"/>
	<path class="st0" d="M604.9,399.6c5.3,0,9.7-2.1,13.1-6.3l7,7.2c-5.5,6.2-12,9.3-19.5,9.3c-7.5,0-13.7-2.4-18.5-7.1
		c-4.8-4.7-7.3-10.7-7.3-17.9c0-7.2,2.5-13.2,7.4-18.1c4.9-4.8,11-7.2,18.1-7.2c8,0,14.7,3,20,9.1l-6.8,7.7
		c-3.4-4.3-7.7-6.4-12.8-6.4c-4.1,0-7.6,1.3-10.5,4c-2.9,2.7-4.3,6.3-4.3,10.8c0,4.5,1.4,8.2,4.1,10.9
		C597.7,398.2,601,399.6,604.9,399.6z"/>
	<path class="st0" d="M719,360.6h10.9v48.7H719l-23.2-30.5v30.5H685v-48.7h10.2l23.9,31.3V360.6z"/>
	<path class="st0" d="M741.9,360.6v9.7h10.9v-0.1H777v-9.7H741.9z M752.7,399.6L752.7,399.6l-10.9-0.1v9.7h35.9v-9.6H752.7z
		 M752.7,389.5h21.8v-9.3h-32.6v9.3L752.7,389.5L752.7,389.5z"/>
	<path class="st0" d="M387.3,390.2c0-1.6,0-1.6-1.6-1.8c-2.8-0.3-5.6-0.6-8.5-0.9c-1.7-0.1-3.4-0.7-5,0.1c-2.1,1-4.3,2.1-6.4,3.1
		c-0.4,0.2-0.7,0.4-0.7,0.9c0,0.9,0,1.9,0,2.8c0,0.6,0.2,1,0.9,1c0.5,0,0.8,0.3,0.8,0.9v12c6.3-2.2,12.6-4.1,18.9-6.1
		c1.3-0.4,1.6-0.8,1.6-2.2C387.4,396.8,387.3,393.5,387.3,390.2z M371.7,397.8c-0.1,0.7-0.8,0.7-1.2,0.7c-0.6,0-0.3-0.6-0.4-0.9
		c0-0.3,0-0.6,0-0.9c0,0,0,0,0,0c0-0.4,0-0.8,0-1.1c0-0.6,0.7-1.2,1.3-1.2c0.3,0,0.2,0.2,0.2,0.3
		C371.9,395.7,371.8,396.7,371.7,397.8z M380.5,397.7c-0.6,0.3-1.4,0.1-2.1-0.1c-0.2,0-0.4-0.1-0.4-0.4c-0.1-0.9-0.1-1.8,0-2.7
		c0-0.2,0.2-0.3,0.3-0.3c0.1,0,0.2,0,0.3,0c1.8-0.2,2.1,0.1,2.1,2C380.6,396.7,380.9,397.5,380.5,397.7z M383.4,398
		c-0.1-0.1-0.3-0.2-0.3-0.3c-0.1-0.9-0.1-1.8,0-2.7c0-0.3,0.3-0.4,0.6-0.4c0.6,0.1,1.1,0.1,1.7,0.2c0.3,0.1,0.4,0.3,0.4,0.6
		c0,0.4,0,0.8,0,1.1C385.7,398.3,385,398.7,383.4,398z"/>
	<path class="st0" d="M363,413.6c0-1.2,0.7-1.6,1.5-1.9c3.4-1.2,6.8-2.4,10.2-3.5c4-1.3,8.1-2.6,12.1-3.8c1.8-0.6,2.9-1.8,3.2-3.6
		c0.2-1.1,0.9-1.8,2-2.2c8.6-2.9,17.4-5.4,26.4-6.8c4.3-0.6,8.6-0.6,12.9-0.3c1.6,0.1,3.2,0.3,4.8,0.7c1.7,0.4,1.8,0.6,1.3,2.3
		c-1.2,4-3,7.8-5.2,11.4c-2.1,3.5-4.6,6.8-6.5,10.5c-0.9,1.7-1.7,3.5-2.2,5.3c-0.1,0.4-0.2,0.8-0.7,0.4c-2-1.5-4.4-1.9-6.8-2.1
		c-6.9-0.5-13.4,1-19.9,2.9c-5.2,1.5-10.4,3.3-15.7,4.2c-3.8,0.6-7.5,0.8-11.3-0.1c-0.7-0.2-1.2-0.5-1.6-1.2
		c-2.1-3.6-3.7-7.4-4.4-11.5C363.1,413.9,363.1,413.7,363,413.6z"/>
	<path class="st0" d="M422.8,430.9c-0.3,1.4-0.6,2.8-0.9,4.3c0,0.2-0.1,0.4-0.1,0.6c-1.3,1.9-3.7,3.3-6.5,3.9h-4.5
		c-1.7,0-3.4-0.3-5.1-0.9c0,0,0,0-0.1,0c-1.3-0.4-2.6-0.7-3.9-0.8c-3.5-0.2-6.8,0.5-10.2,1c-3.5,0.5-6.9,1-10.5,0.8
		c-5.5-0.2-10.7-1.3-15.5-4.1c-3.3-1.9-5.7-4.7-7.3-8.2c-0.1-0.3-0.3-0.6-0.4-1c0-0.1,0-0.2,0-0.2c0.2-0.1,0.3,0,0.4,0
		c3.5,2.8,7.6,4.1,11.9,4.7c8.5,1.1,16.6-1,24.4-3.9c4-1.5,8.1-3,12.3-3.7c3.5-0.6,7-0.8,10.5-0.1c1.2,0.2,2.4,0.7,3.4,1.4
		c0.5,0.4,0.9,0.8,1.2,1.2C423,427.3,423.1,429,422.8,430.9z"/>
	<path class="st0" d="M389.2,390.7c0-1.7,0-3.4,0-5.1c0-0.7,0.2-1.2,1-1.3c2.3-0.5,4.7-1.1,7-1.6c0.7-0.2,1,0.1,1,0.8
		c0,3.3,0,6.5,0,9.8c0,0.6-0.2,0.9-0.8,1.1c-2.4,0.8-4.8,1.6-7.2,2.4c-0.8,0.3-1,0-1-0.8C389.2,394.1,389.2,392.4,389.2,390.7
		C389.2,390.7,389.2,390.7,389.2,390.7z"/>
	<path class="st0" d="M399.6,375.9c0-1.2,0-2.3,0-3.5c0-0.8,0.2-1.1,1.1-1c2.6,0.3,5.2,0.7,7.9,1.2c0.6,0.1,0.8,0.4,0.8,1
		c0,2.5,0,5,0,7.5c0,0.7-0.3,0.9-1,0.8c-2.5-0.4-5.1-0.7-7.6-1.1c-0.9-0.1-1.2-0.5-1.1-1.3C399.7,378.2,399.6,377.1,399.6,375.9
		C399.6,375.9,399.6,375.9,399.6,375.9z"/>
	<path class="st0" d="M399.6,388c0-1.5,0-3,0-4.5c0-0.6,0.2-0.9,0.9-0.8c2.8,0.3,5.5,0.7,8.3,1c0.6,0.1,0.8,0.3,0.8,0.9
		c0,1.9,0,3.8,0,5.7c0,0.5-0.2,0.8-0.7,0.9c-2.7,0.7-5.4,1.4-8.1,2.1c-1,0.3-1.1,0.2-1.1-0.9C399.6,391,399.6,389.5,399.6,388z"/>
	<path class="st0" d="M389.2,378.1c0-1.2,0-2.5,0-3.7c0-0.6,0.2-0.9,0.8-1c2.3-0.6,4.6-1.3,6.9-1.9c1.1-0.3,1.2-0.2,1.2,1
		c0,2.3,0,4.5,0.1,6.8c0.1,0.8-0.2,1.3-1.1,1.5c-2.2,0.5-4.5,1.1-6.7,1.6c-1,0.3-1.1,0.2-1.2-0.9
		C389.2,380.4,389.2,379.3,389.2,378.1z"/>
	<path class="st0" d="M411,377.6c0-1.3,0-2.5,0-3.8c0-0.6,0.2-0.9,0.9-0.8c2.3,0.3,4.6,0.8,6.9,1.3c0.5,0.1,0.7,0.4,0.7,0.9
		c-0.1,2.4-0.1,4.9-0.2,7.3c0,0.5-0.3,0.7-0.8,0.7c-2.3-0.3-4.6-0.6-6.8-0.9c-0.6-0.1-0.6-0.5-0.6-0.9
		C411,380.1,411,378.9,411,377.6z"/>
	<path class="st0" d="M382.6,382.1c0,1.1,0,2.2,0,3.3c0,0.6-0.2,0.9-0.8,0.9c-1.6-0.1-3.3-0.3-4.9-0.4c-0.4,0-0.5-0.3-0.6-0.6
		c-0.3-2.2-0.1-4.3-0.1-6.5c0-0.6,0.4-0.8,0.9-1c1.6-0.5,3.3-0.4,5,0c0.5,0.1,0.6,0.6,0.6,1C382.6,379.9,382.6,381,382.6,382.1z"/>
	<path class="st0" d="M411.2,387.4c0-0.8,0-1.6,0-2.4c0-0.7,0.2-1,0.9-0.9c2.2,0.3,4.4,0.6,6.7,0.9c0.4,0.1,0.6,0.3,0.6,0.7
		c0,0.1,0,0.1,0,0.2c0.2,3.1,0.2,3.1-2.9,3.7c-1.5,0.3-3,0.6-4.4,0.9c-0.7,0.2-0.9-0.1-0.9-0.7C411.2,389,411.2,388.2,411.2,387.4z"
		/>
	<path class="st0" d="M422.9,433.1c-0.2,1-0.6,1.9-1.2,2.7c-1.3,1.9-3.7,3.3-6.5,3.9c-2.9,0.7-6.2,0.5-9.5-0.9c0,0,0,0,0,0
		c-8-3.2-13.2-3.2-14-3.2c-0.8,0,10.1-4.2,10.1-4.2l5-0.8L422,426c0,0,0,0,0,0C422.1,426,423.8,427.6,422.9,433.1z"/>
	<polygon class="st0" points="505.3,360.6 494.8,360.6 473.8,409.2 485.3,409.2 489.8,398.7 489.8,398.7 494,389.2 493.9,389.2 
		500.1,375 514.8,409.2 526.3,409.2 	"/>
	<path class="st0" d="M400.6,363.7c0.4,0,0.8-0.4,0.6-0.9c-1.3-3.4-2.7-6.9-4.1-10.3c-3.1-7.5-6.1-15.1-9.1-22.6
		c-0.4-0.9-0.9-1.2-2.2-1c-5.7,0.9-11.4,0.4-17.2,0c-1-0.1-1.4,0.2-1.7,0.9c-0.9,2.2-1.8,4.3-2.7,6.5c-3.7,9.2-7.4,18.4-11.1,27.6
		c-3.8,9.6-7.7,19.1-11.6,28.6c-4,10-7.8,20.1-12.1,30c-1.6,3.7-5.6,12.5-7.4,16.1c-0.4,0.8-0.8,1.5-1.2,2.1h20.7
		c0.1-0.3,0.2-0.6,0.3-0.9c1-3,3-7.6,4.9-12l0,0l10.3-25.5c0-0.2,0.1-0.4,0.2-0.8c0.1-0.2,0.1-0.4,0.2-0.6c1.5-3.9,3.1-7.8,4.6-11.6
		c4.3-10.9,8.5-21.8,12.8-32.7c0.7-1.8,1.4-3.5,2.1-5.3c0.4,0.3,0.5,0.7,0.6,1c1.4,3.7,2.8,7.3,4.3,11c0.1,0.2,0.3,0.4,0.6,0.4
		H400.6z"/>
	<polygon class="st0" points="368.6,328.9 385.8,329 386.5,331.8 386.5,332.6 380.7,335.9 376.2,337.4 373.9,338.3 	"/>
	<polygon class="st0" points="741.9,370.3 777,370.2 763.4,365.2 759.8,364.4 753,364.4 	"/>
	<polygon class="st0" points="741.9,399.5 777.7,399.6 767.2,403.4 759.8,404.4 755,404.4 	"/>
	<polygon class="st0" points="658.3,360.6 647.8,360.6 626.8,409.2 638.4,409.2 642.9,398.7 642.9,398.7 647,389.2 647,389.2 
		653.1,375 667.8,409.2 679.4,409.2 	"/>
</g>
</svg>
